Coordinates
version=1
nRows=15
nColumns=42
inDegrees=yes

Units are S.I. units (second, meters, Newtons, ...)
If the header above contains a line with 'inDegrees', this indicates whether rotational values are in degrees (yes) or radians (no).

endheader
time	pelvis_tilt	pelvis_list	pelvis_rotation	pelvis_tx	pelvis_ty	pelvis_tz	hip_flexion_r	hip_adduction_r	hip_rotation_r	knee_angle_r	knee_adduction_r	knee_angle_r_beta	ankle_angle_r	subtalar_angle_r	mtp_angle_r	hip_flexion_l	hip_adduction_l	hip_rotation_l	knee_angle_l	knee_adduction_l	knee_angle_l_beta	ankle_angle_l	subtalar_angle_l	mtp_angle_l	lumbar_extension	lumbar_bending	lumbar_rotation	arm_flex_r	arm_add_r	arm_rot_r	elbow_flex_r	pro_sup_r	wrist_flex_r	wrist_dev_r	arm_flex_l	arm_add_l	arm_rot_l	elbow_flex_l	pro_sup_l	wrist_flex_l	wrist_dev_l
      2.24000000	      1.81325416	     -3.41149023	      0.47936817	      0.77689432	      0.94639281	     -0.11125198	      9.37334183	      0.07513505	      0.54055481	     52.07222463	      9.06482638	      0.90883177	     -2.61780199	    -18.65020882	     -7.50163864	      1.87211354	     -3.96845011	      3.19512225	      6.18674919	      5.36546950	      0.10797914	     -4.45128050	    -17.59576793	     -7.50163864	    -13.60507422	      3.19173618	     -3.03559376	     -3.81084847	    -11.35966678	      1.60056055	     22.53721169	     90.00000001	      0.00000000	      0.00000000	      1.32244994	    -12.44737054	     -1.35626894	     37.21540692	     90.00000001	      0.00000000	      0.00000000
      2.25000000	      1.68386343	     -3.49328250	      0.84805916	      0.78707130	      0.94673334	     -0.11187393	     10.90229214	      0.02649678	      0.33692071	     51.01082691	      9.10027098	      0.89030688	     -2.36924715	    -18.56894045	     -7.50162051	      1.10536501	     -4.01764778	      2.81164573	      5.76500544	      5.27248571	      0.10061833	     -4.12123050	    -17.15722204	     -7.50162051	    -13.52561193	      3.45287892	     -3.36273005	     -4.49889291	    -11.11153235	      1.52610208	     22.45150607	     90.00000001	      0.00000000	      0.00000000	      2.40433703	    -12.58710726	     -1.19450598	     38.10489178	     90.00000001	      0.00000000	      0.00000000
      2.26000000	      1.73274000	     -3.60886433	      1.21207317	      0.79730700	      0.94691934	     -0.11236520	     12.06706298	      0.02280452	      0.68696008	     49.51539419	      9.53456579	      0.86420666	     -2.08097778	    -18.69073908	     -7.50151387	     -0.06241027	     -4.14171591	      3.30922455	      4.93038715	      5.22483141	      0.08605149	     -3.82261807	    -17.14937999	     -7.50151387	    -13.67535884	      3.74071212	     -3.62557537	     -5.27062084	    -10.75414234	      0.11799682	     22.88888455	     90.00000001	      0.00000000	      0.00000000	      2.56134484	    -13.64874226	      1.33250657	     41.28798960	     90.00000001	      0.00000000	      0.00000000
      2.27000000	      1.72289365	     -3.63377433	      1.55168228	      0.80759730	      0.94672411	     -0.11285907	     13.24585417	     -0.09907946	      0.64346119	     47.85281091	      9.61966193	      0.83518911	     -1.98829700	    -18.73700147	     -7.50140429	     -1.02425593	     -4.18404683	      3.35869484	      4.38915941	      5.19382809	      0.07660528	     -3.29973462	    -16.75346337	     -7.50140429	    -13.72634969	      3.92503988	     -3.87515347	     -5.95710243	    -10.41360751	     -0.82581808	     23.00166141	     90.00000001	      0.00000000	      0.00000000	      3.38531022	    -14.19918137	      2.50012143	     42.88581108	     90.00000001	      0.00000000	      0.00000000
      2.28000000	      1.71320922	     -3.62179056	      1.86129897	      0.81796773	      0.94623057	     -0.11331712	     14.32291431	     -0.25818161	      0.54741380	     45.94233176	      9.59894415	      0.80184496	     -2.00554800	    -18.79225433	     -7.50137123	     -1.97116550	     -4.21588353	      3.38239441	      3.88932311	      5.20743983	      0.06788149	     -2.68920540	    -16.30048176	     -7.50137123	    -13.75770237	      4.06786372	     -4.16903225	     -6.62906248	    -10.17639997	     -1.09925027	     23.14817775	     90.00000001	      0.00000000	      0.00000000	      4.32684374	    -14.44587044	      2.72308991	     44.01068269	     90.00000001	      0.00000000	      0.00000000
      2.29000000	      1.69022642	     -3.53950891	      2.13248735	      0.82835747	      0.94541510	     -0.11370527	     15.33050303	     -0.49775642	      0.41591319	     43.83145737	      9.50184584	      0.76500325	     -2.06065466	    -18.84438638	     -7.50128696	     -2.85293632	     -4.16719640	      3.42840243	      3.50083994	      5.20700198	      0.06110118	     -2.16429663	    -15.99205180	     -7.50128696	    -13.79768849	      4.11955882	     -4.39744365	     -7.44767410	     -9.87908848	     -2.03997862	     23.72275100	     90.00000001	      0.00000000	      0.00000000	      4.89922050	    -15.13245364	      3.94023192	     46.09778661	     90.00000001	      0.00000000	      0.00000000
      2.30000000	      1.71282202	     -3.42254580	      2.38065029	      0.83887306	      0.94438391	     -0.11406342	     16.16478536	     -0.76406952	      0.25573134	     41.46819895	      9.31800071	      0.72375661	     -2.28020456	    -18.86120648	     -7.50125511	     -3.77294530	     -4.10450404	      3.48255440	      3.14470190	      5.24630528	      0.05488540	     -1.39258245	    -15.53367335	     -7.50125511	    -13.86398004	      4.13569782	     -4.66048467	     -8.07653273	     -9.64220490	     -2.31307094	     23.88856310	     90.00000001	      0.00000000	      0.00000000	      5.80165149	    -15.41459145	      4.21656361	     47.17830981	     90.00000001	      0.00000000	      0.00000000
      2.31000000	      1.71533500	     -3.23425095	      2.59852145	      0.84945503	      0.94306287	     -0.11440381	     16.91964178	     -1.10204803	      0.13920643	     38.90638906	      9.09656047	      0.67904459	     -2.54863179	    -18.90569473	     -7.50121509	     -4.63666865	     -3.94631050	      3.54777092	      2.88463659	      5.25048287	      0.05034641	     -0.66195818	    -15.17414745	     -7.50121509	    -13.90191372	      4.06816488	     -4.89782819	     -8.77272838	     -9.39450805	     -2.79285753	     24.28175733	     90.00000001	      0.00000000	      0.00000000	      6.53680381	    -15.87377562	      4.82896660	     48.68613653	     90.00000001	      0.00000000	      0.00000000
      2.32000000	      1.69482618	     -3.02879119	      2.82223105	      0.86011149	      0.94151527	     -0.11470839	     17.60180466	     -1.43826080	     -0.18054286	     36.16476827	      8.69610676	      0.63119428	     -2.79706011	    -18.85242396	     -7.50119369	     -5.39169685	     -3.77945204	      3.60410202	      2.78866274	      5.27592002	      0.04867135	      0.05875512	    -14.76501047	     -7.50119369	    -13.90302755	      3.98445559	     -5.13649962	     -9.37603278	     -9.17728955	     -2.98587280	     24.43672409	     90.00000001	      0.00000000	      0.00000000	      7.41915281	    -16.11779878	      5.07577315	     49.70156509	     90.00000001	      0.00000000	      0.00000000
      2.33000000	      1.75598063	     -2.77538617	      3.00920453	      0.87091920	      0.93981728	     -0.11495340	     18.06676985	     -1.82163201	     -0.21975117	     33.19349656	      8.42172287	      0.57933581	     -3.24380864	    -18.79979265	     -7.50117096	     -6.28276782	     -3.58416548	      3.79643958	      2.63195008	      5.33270381	      0.04593619	      0.92117762	    -14.47221761	     -7.50117096	    -13.99584487	      3.85206334	     -5.38585220	     -9.95553194	     -8.94507965	     -3.26223462	     24.70915663	     90.00000001	      0.00000000	      0.00000000	      8.16711394	    -16.50742231	      5.48667597	     50.90724797	     90.00000001	      0.00000000	      0.00000000
      2.34000000	      1.79703749	     -2.43413304	      3.12122501	      0.88180070	      0.93787697	     -0.11511198	     18.48481272	     -2.28184317	     -0.02161478	     30.12226197	      8.19692615	      0.52573265	     -3.81187467	    -18.80433359	     -7.50112288	     -7.16685324	     -3.25854481	      4.05121402	      2.47868303	      5.34398735	      0.04326118	      1.63679612	    -14.49938104	     -7.50112288	    -14.07899630	      3.59649871	     -5.54962987	    -10.63392778	     -8.64649041	     -3.92928863	     25.22109872	     90.00000001	      0.00000000	      0.00000000	      8.61703879	    -17.30652452	      6.71304820	     52.83690476	     90.00000001	      0.00000000	      0.00000000
      2.35000000	      1.85774983	     -2.09703527	      3.29842302	      0.89285701	      0.93577928	     -0.11533221	     18.79083586	     -2.72112282	     -0.02314475	     26.97163193	      7.79544806	      0.47074378	     -4.33990194	    -18.66398996	     -7.50108452	     -8.02622405	     -2.94240235	      4.32017014	      2.42084364	      5.34215246	      0.04225169	      2.43885609	    -14.42369494	     -7.50108452	    -14.13772267	      3.37383498	     -5.79972577	    -11.17057191	     -8.39915357	     -4.24959267	     25.35433960	     90.00000001	      0.00000000	      0.00000000	      9.33725859	    -17.72791930	      7.28824620	     53.98139528	     90.00000001	      0.00000000	      0.00000000
      2.36000000	      1.95563411	     -1.78264881	      3.45537606	      0.90401668	      0.93358091	     -0.11544956	     18.97923212	     -3.15068348	     -0.20331748	     23.76564728	      7.36943335	      0.41478879	     -4.78518636	    -18.33948983	     -7.50106227	     -8.87980676	     -2.68200015	      4.64160609	      2.47604767	      5.39003794	      0.04321518	      3.32085744	    -14.24119070	     -7.50106227	    -14.25897160	      3.16287080	     -6.01258967	    -11.56995002	     -8.19897276	     -4.37411614	     25.46751635	     90.00000001	      0.00000000	      0.00000000	     10.02996896	    -18.04758447	      7.52294375	     54.83022579	     90.00000001	      0.00000000	      0.00000000
      2.37000000	      2.05981378	     -1.42179133	      3.54429535	      0.91534393	      0.93120094	     -0.11551801	     19.13338577	     -3.59380551	     -0.20085335	     20.65345413	      6.92229691	      0.36047078	     -5.30982037	    -17.96239896	     -7.50103735	     -9.79694529	     -2.34269000	      4.97302975	      2.46240919	      5.39681211	      0.04297715	      4.16448288	    -14.27359213	     -7.50103735	    -14.34706332	      2.90490662	     -6.18650145	    -12.00926214	     -7.98676446	     -4.52650893	     25.58855590	     90.00000001	      0.00000000	      0.00000000	     10.60780537	    -18.45135800	      7.94737983	     55.89041981	     90.00000001	      0.00000000	      0.00000000
      2.38000000	      2.14423530	     -1.04402849	      3.66283915	      0.92674100	      0.92865775	     -0.11557527	     19.31159825	     -4.06220230	     -0.47223120	     17.75256812	      6.39860897	      0.30984076	     -5.73439059	    -17.39019129	     -7.50098500	    -10.66933311	     -1.97531681	      5.48000128	      2.50559562	      5.36792450	      0.04373089	      4.73744726	    -14.71549988	     -7.50098500	    -14.42753898	      2.62383174	     -6.37238806	    -12.43780480	     -7.77234740	     -4.81519288	     25.74685366	     90.00000001	      0.00000000	      0.00000000	     10.98490349	    -19.12303418	      8.92051267	     57.34937503	     90.00000001	      0.00000000	      0.00000000
